<svg width="248" height="41" viewBox="0 0 248 41" fill="none" xmlns="http://www.w3.org/2000/svg">
<path d="M5.92206 32C5.43115 32 5.01834 31.8326 4.68363 31.4979C4.34892 31.1632 4.18157 30.7504 4.18157 30.2595V7.59966C4.18157 7.08644 4.34892 6.67363 4.68363 6.36124C5.01834 6.02653 5.43115 5.85917 5.92206 5.85917C6.43528 5.85917 6.84809 6.02653 7.16049 6.36124C7.4952 6.67363 7.66255 7.08644 7.66255 7.59966V17.2058H23.1931V7.59966C23.1931 7.08644 23.3604 6.67363 23.6951 6.36124C24.0299 6.02653 24.4427 5.85917 24.9336 5.85917C25.4468 5.85917 25.8596 6.02653 26.172 6.36124C26.4844 6.67363 26.6406 7.08644 26.6406 7.59966V30.2595C26.6406 30.7504 26.4844 31.1632 26.172 31.4979C25.8596 31.8326 25.4468 32 24.9336 32C24.4427 32 24.0299 31.8326 23.6951 31.4979C23.3604 31.1632 23.1931 30.7504 23.1931 30.2595V20.2852H7.66255V30.2595C7.66255 30.7504 7.4952 31.1632 7.16049 31.4979C6.84809 31.8326 6.43528 32 5.92206 32ZM40.6346 32.1339C39.0057 32.1339 37.5441 31.7322 36.2499 30.9289C34.9557 30.1033 33.9292 28.9988 33.1706 27.6153C32.4342 26.2095 32.066 24.6252 32.066 22.8624C32.066 21.0996 32.4677 19.5153 33.271 18.1095C34.0966 16.7038 35.2011 15.5992 36.5846 14.7959C37.9904 13.9703 39.5635 13.5575 41.304 13.5575C43.0445 13.5575 44.6065 13.9703 45.9899 14.7959C47.3734 15.5992 48.4668 16.7038 49.2701 18.1095C50.0957 19.5153 50.5085 21.0996 50.5085 22.8624H49.2032C49.2032 24.6252 48.8238 26.2095 48.0652 27.6153C47.3288 28.9988 46.3135 30.1033 45.0193 30.9289C43.7251 31.7322 42.2635 32.1339 40.6346 32.1339ZM41.304 29.1215C42.442 29.1215 43.4573 28.8537 44.3499 28.3182C45.2424 27.7603 45.9453 27.0128 46.4585 26.0756C46.9718 25.1161 47.2284 24.0451 47.2284 22.8624C47.2284 21.6575 46.9718 20.5864 46.4585 19.6492C45.9453 18.6897 45.2424 17.9422 44.3499 17.4067C43.4573 16.8488 42.442 16.5699 41.304 16.5699C40.1883 16.5699 39.173 16.8488 38.2582 17.4067C37.3656 17.9422 36.6515 18.6897 36.116 19.6492C35.6028 20.5864 35.3462 21.6575 35.3462 22.8624C35.3462 24.0451 35.6028 25.1161 36.116 26.0756C36.6515 27.0128 37.3656 27.7603 38.2582 28.3182C39.173 28.8537 40.1883 29.1215 41.304 29.1215ZM48.8015 32.0335C48.3106 32.0335 47.8978 31.8773 47.5631 31.5649C47.2507 31.2302 47.0945 30.8174 47.0945 30.3265V25.2054L47.7304 21.6575L50.5085 22.8624V30.3265C50.5085 30.8174 50.3412 31.2302 50.0065 31.5649C49.6941 31.8773 49.2924 32.0335 48.8015 32.0335Z" fill="#1F66EF"/>
<path d="M66.278 11.6669V11.6963M79.7217 25.0002V25.0169M71.0303 16.3802C71.9706 15.4479 72.611 14.2601 72.8705 12.9668C73.13 11.6735 72.997 10.333 72.4883 9.11469C71.9796 7.8964 71.1181 6.85509 70.0126 6.12246C68.9072 5.38982 67.6075 4.99878 66.278 4.99878C64.9484 4.99878 63.6488 5.38982 62.5433 6.12246C61.4379 6.85509 60.5763 7.8964 60.0676 9.11469C59.5589 10.333 59.4259 11.6735 59.6855 12.9668C59.945 14.2601 60.5854 15.4479 61.5257 16.3802L66.278 21.7142L71.0303 16.3802ZM84.474 29.7135C85.4143 28.7813 86.0546 27.5934 86.3142 26.3001C86.5737 25.0069 86.4407 23.6663 85.932 22.448C85.4233 21.2297 84.5618 20.1884 83.4563 19.4558C82.3509 18.7232 81.2433 18.2856 79.9137 18.2856C78.5842 18.2856 77.0924 18.7232 75.987 19.4558C74.8815 20.1884 74.02 21.2297 73.5113 22.448C73.0026 23.6663 72.8696 25.0069 73.1291 26.3001C73.3887 27.5934 74.029 28.7813 74.9693 29.7135L79.7217 34.4285L84.474 29.7135Z" stroke="#F0AF1F" stroke-width="3.3471" stroke-linecap="round" stroke-linejoin="round"/>
<path d="M97.8849 32C97.394 32 96.9812 31.8438 96.6464 31.5314C96.3341 31.1967 96.1779 30.7839 96.1779 30.293V15.3649C96.2225 14.874 96.401 14.4724 96.7134 14.16C97.0258 13.8476 97.4163 13.6914 97.8849 13.6914C98.3981 13.6914 98.8109 13.8476 99.1233 14.16C99.4357 14.4724 99.5919 14.8852 99.5919 15.3984V21.1554H106.085V21.8248C107.313 21.8248 108.395 22.0368 109.332 22.4608C110.291 22.8847 111.039 23.4761 111.575 24.2347C112.11 24.9711 112.378 25.8302 112.378 26.812C112.378 27.8161 112.11 28.7087 111.575 29.4897C111.039 30.2707 110.291 30.8843 109.332 31.3306C108.395 31.7769 107.313 32 106.085 32H97.8849ZM99.5919 28.8203H106.085C106.978 28.8203 107.703 28.6083 108.261 28.1843C108.819 27.738 109.098 27.169 109.098 26.4773C109.098 25.7409 108.819 25.1385 108.261 24.6699C107.703 24.2013 106.978 23.967 106.085 23.967H99.5919V28.8203ZM103.441 22.9628V21.1554H106.621C107.179 21.1554 107.636 20.9434 107.993 20.5195C108.35 20.0732 108.529 19.5153 108.529 18.8459C108.529 18.2657 108.317 17.786 107.893 17.4067C107.469 17.0273 106.933 16.8377 106.286 16.8377H97.9183V13.6914H106.286C107.335 13.6914 108.261 13.9034 109.064 14.3273C109.89 14.729 110.537 15.298 111.005 16.0343C111.474 16.7484 111.708 17.574 111.708 18.5112C111.708 19.8054 111.217 20.8765 110.236 21.7244C109.276 22.55 108.071 22.9628 106.621 22.9628H103.441ZM124.875 32.1339C123.09 32.1339 121.494 31.7322 120.089 30.9289C118.705 30.1033 117.612 28.9988 116.809 27.6153C116.028 26.2095 115.637 24.6252 115.637 22.8624C115.637 21.055 116.028 19.4484 116.809 18.0426C117.59 16.6368 118.661 15.5434 120.022 14.7624C121.383 13.9591 122.945 13.5575 124.708 13.5575C126.024 13.5575 127.229 13.8141 128.323 14.3273C129.416 14.8182 130.398 15.5658 131.268 16.5699C131.58 16.9269 131.692 17.2951 131.603 17.6744C131.513 18.0538 131.268 18.3885 130.866 18.6786C130.554 18.9017 130.208 18.9798 129.829 18.9128C129.449 18.8236 129.104 18.6228 128.791 18.3104C127.698 17.15 126.337 16.5699 124.708 16.5699C123.57 16.5699 122.566 16.8376 121.695 17.3732C120.825 17.8864 120.144 18.6116 119.654 19.5488C119.163 20.486 118.917 21.5905 118.917 22.8624C118.917 24.0674 119.163 25.1385 119.654 26.0756C120.167 27.0128 120.87 27.7603 121.762 28.3182C122.655 28.8537 123.692 29.1215 124.875 29.1215C125.656 29.1215 126.337 29.0322 126.917 28.8537C127.519 28.6529 128.066 28.3517 128.557 27.95C128.914 27.6599 129.282 27.5037 129.661 27.4814C130.041 27.4368 130.375 27.5372 130.666 27.7827C131.045 28.0951 131.257 28.4521 131.301 28.8537C131.346 29.2331 131.212 29.5789 130.9 29.8913C129.293 31.3864 127.285 32.1339 124.875 32.1339ZM160.709 32.0335C160.218 32.0335 159.805 31.8773 159.47 31.5649C159.158 31.2302 159.002 30.8174 159.002 30.3265V20.7538C159.002 19.348 158.656 18.3104 157.964 17.641C157.272 16.9492 156.369 16.6034 155.253 16.6034C154.092 16.6034 153.133 17.005 152.374 17.8083C151.638 18.6116 151.27 19.6381 151.27 20.8876H148.492C148.492 19.4372 148.804 18.1653 149.429 17.0719C150.054 15.9562 150.924 15.086 152.04 14.4612C153.178 13.8364 154.472 13.524 155.922 13.524C157.194 13.524 158.321 13.8029 159.303 14.3608C160.285 14.9186 161.043 15.7443 161.579 16.8377C162.137 17.9087 162.416 19.2141 162.416 20.7538V30.3265C162.416 30.8174 162.259 31.2302 161.947 31.5649C161.635 31.8773 161.222 32.0335 160.709 32.0335ZM138.383 32.0335C137.893 32.0335 137.48 31.8773 137.145 31.5649C136.833 31.2302 136.676 30.8174 136.676 30.3265V15.4319C136.676 14.9186 136.833 14.5058 137.145 14.1934C137.48 13.881 137.893 13.7249 138.383 13.7249C138.897 13.7249 139.309 13.881 139.622 14.1934C139.934 14.5058 140.09 14.9186 140.09 15.4319V30.3265C140.09 30.8174 139.934 31.2302 139.622 31.5649C139.309 31.8773 138.897 32.0335 138.383 32.0335ZM149.563 32.0335C149.072 32.0335 148.659 31.8773 148.324 31.5649C148.012 31.2302 147.856 30.8174 147.856 30.3265V20.7538C147.856 19.348 147.51 18.3104 146.818 17.641C146.126 16.9492 145.223 16.6034 144.107 16.6034C142.947 16.6034 141.987 17.005 141.228 17.8083C140.47 18.6116 140.09 19.6381 140.09 20.8876H137.982C137.982 19.4372 138.272 18.1653 138.852 17.0719C139.432 15.9562 140.235 15.086 141.262 14.4612C142.288 13.8364 143.46 13.524 144.776 13.524C146.048 13.524 147.175 13.8029 148.157 14.3608C149.139 14.9186 149.897 15.7443 150.433 16.8377C150.991 17.9087 151.27 19.2141 151.27 20.7538V30.3265C151.27 30.8174 151.114 31.2302 150.801 31.5649C150.489 31.8773 150.076 32.0335 149.563 32.0335ZM169.795 39.8322C169.304 39.8322 168.891 39.6649 168.557 39.3301C168.244 39.0177 168.088 38.6161 168.088 38.1252V22.8624C168.11 21.0996 168.523 19.5153 169.327 18.1095C170.13 16.7038 171.223 15.5992 172.607 14.7959C173.99 13.9703 175.552 13.5575 177.293 13.5575C179.055 13.5575 180.629 13.9703 182.012 14.7959C183.396 15.5992 184.489 16.7038 185.292 18.1095C186.118 19.5153 186.531 21.0996 186.531 22.8624C186.531 24.6252 186.151 26.2095 185.393 27.6153C184.656 28.9988 183.641 30.1033 182.347 30.9289C181.053 31.7322 179.591 32.1339 177.962 32.1339C176.646 32.1339 175.429 31.8661 174.314 31.3306C173.22 30.7727 172.283 30.0252 171.502 29.088V38.1252C171.502 38.6161 171.346 39.0177 171.034 39.3301C170.721 39.6649 170.308 39.8322 169.795 39.8322ZM177.293 29.1215C178.431 29.1215 179.446 28.8537 180.339 28.3182C181.231 27.7603 181.934 27.0128 182.447 26.0756C182.983 25.1161 183.25 24.0451 183.25 22.8624C183.25 21.6575 182.983 20.5864 182.447 19.6492C181.934 18.6897 181.231 17.9422 180.339 17.4067C179.446 16.8488 178.431 16.5699 177.293 16.5699C176.177 16.5699 175.162 16.8488 174.247 17.4067C173.354 17.9422 172.651 18.6897 172.138 19.6492C171.625 20.5864 171.368 21.6575 171.368 22.8624C171.368 24.0451 171.625 25.1161 172.138 26.0756C172.651 27.0128 173.354 27.7603 174.247 28.3182C175.162 28.8537 176.177 29.1215 177.293 29.1215ZM200.224 32.1339C198.372 32.1339 196.721 31.7434 195.271 30.9624C193.843 30.1591 192.716 29.0657 191.89 27.6822C191.087 26.2765 190.685 24.6699 190.685 22.8624C190.685 21.0327 191.065 19.4261 191.823 18.0426C192.604 16.6368 193.675 15.5434 195.036 14.7624C196.398 13.9591 197.96 13.5575 199.722 13.5575C201.463 13.5575 202.958 13.948 204.208 14.729C205.457 15.4877 206.405 16.5476 207.053 17.9087C207.722 19.2476 208.057 20.7984 208.057 22.5612C208.057 22.9852 207.912 23.3422 207.622 23.6323C207.331 23.9 206.963 24.0339 206.517 24.0339H193.028V21.3562H206.417L205.044 22.2934C205.022 21.1777 204.799 20.1847 204.375 19.3145C203.951 18.4219 203.348 17.7191 202.567 17.2058C201.786 16.6926 200.838 16.436 199.722 16.436C198.45 16.436 197.357 16.7149 196.442 17.2728C195.55 17.8306 194.869 18.6005 194.401 19.5823C193.932 20.5418 193.698 21.6352 193.698 22.8624C193.698 24.0897 193.977 25.1831 194.534 26.1426C195.092 27.1021 195.862 27.8608 196.844 28.4186C197.826 28.9765 198.953 29.2554 200.224 29.2554C200.916 29.2554 201.619 29.1327 202.333 28.8872C203.069 28.6194 203.661 28.3182 204.107 27.9835C204.442 27.738 204.799 27.6153 205.178 27.6153C205.58 27.593 205.926 27.7046 206.216 27.95C206.595 28.2847 206.796 28.6529 206.818 29.0546C206.841 29.4562 206.662 29.8021 206.283 30.0922C205.524 30.6946 204.576 31.1855 203.438 31.5649C202.322 31.9442 201.251 32.1339 200.224 32.1339ZM217.967 26.5108C216.361 26.5108 215.033 26.1426 213.984 25.4062C212.935 24.6699 212.154 23.6657 211.641 22.3938C211.15 21.0996 210.905 19.6157 210.905 17.9422V15.3984C210.905 14.8852 211.061 14.4724 211.373 14.16C211.708 13.8476 212.121 13.6914 212.612 13.6914C213.125 13.6914 213.538 13.8476 213.85 14.16C214.163 14.4724 214.319 14.8852 214.319 15.3984V17.9422C214.319 19.5488 214.631 20.8653 215.256 21.8918C215.903 22.9182 217.03 23.4314 218.637 23.4314C219.909 23.4314 220.946 23.2194 221.749 22.7955C222.575 22.3715 222.988 21.8248 222.988 21.1554H224.762C224.762 22.2042 224.472 23.1302 223.892 23.9335C223.311 24.7368 222.508 25.3727 221.482 25.8413C220.478 26.2876 219.306 26.5108 217.967 26.5108ZM224.695 32C224.204 32 223.791 31.8438 223.456 31.5314C223.144 31.1967 222.988 30.7839 222.988 30.293V15.3984C222.988 14.8852 223.144 14.4724 223.456 14.16C223.791 13.8476 224.204 13.6914 224.695 13.6914C225.208 13.6914 225.621 13.8476 225.933 14.16C226.246 14.4724 226.402 14.8852 226.402 15.3984V30.293C226.402 30.7839 226.246 31.1967 225.933 31.5314C225.621 31.8438 225.208 32 224.695 32ZM231 40.033C230.599 40.033 230.186 39.9772 229.762 39.8657C229.36 39.7541 228.959 39.5868 228.557 39.3636C228.066 39.0735 227.742 38.7165 227.586 38.2925C227.43 37.8686 227.497 37.4558 227.787 37.0541C228.055 36.6748 228.378 36.4405 228.758 36.3512C229.137 36.262 229.539 36.3401 229.963 36.5855C230.208 36.7194 230.431 36.8198 230.632 36.8868C230.855 36.9537 231.078 36.9872 231.301 36.9872C232.016 36.9872 232.696 36.619 233.343 35.8826C234.013 35.1463 234.671 34.0529 235.318 32.6025L243.318 14.5282C243.518 14.0819 243.82 13.7806 244.221 13.6244C244.645 13.4682 245.069 13.4906 245.493 13.6914C245.872 13.8476 246.118 14.1377 246.23 14.5616C246.341 14.9633 246.285 15.3984 246.062 15.867L237.996 33.9413C237.192 35.7487 236.166 37.2103 234.916 38.326C233.689 39.464 232.384 40.033 231 40.033ZM238.632 31.2636C238.208 31.4422 237.806 31.4645 237.427 31.3306C237.07 31.1744 236.78 30.8843 236.556 30.4603L228.892 15.9005C228.668 15.4765 228.635 15.0748 228.791 14.6955C228.97 14.2939 229.271 14.0038 229.695 13.8253C230.119 13.6468 230.509 13.6356 230.866 13.7918C231.246 13.9257 231.547 14.2046 231.77 14.6286L239.134 29.0546C239.357 29.4785 239.435 29.9136 239.368 30.3599C239.301 30.7839 239.056 31.0851 238.632 31.2636Z" fill="#1F66EF"/>
</svg>
